<svg width="0" height="0" class="hidden">
  <symbol xmlns="http://www.w3.org/2000/svg" viewBox="0 0 24 24" id="search">
    <g clip-path="url(#clip0_206_9200)">
      <path d="M18.031 16.617L21.6064 20.1916C21.9972 20.5823 21.9972 21.2158 21.6065 21.6065C21.2158 21.9972 20.5823 21.9972 20.1916 21.6064L16.617 18.031C15.0237 19.3082 13.042 20.0029 11 20C6.032 20 2 15.968 2 11C2 6.032 6.032 2 11 2C15.968 2 20 6.032 20 11C20.0029 13.042 19.3082 15.0237 18.031 16.617ZM16.025 15.875C17.2941 14.5699 18.0029 12.8204 18 11C18 7.132 14.867 4 11 4C7.132 4 4 7.132 4 11C4 14.867 7.132 18 11 18C12.8204 18.0029 14.5699 17.2941 15.875 16.025L16.025 15.875Z"></path>
    </g>
    <defs>
      <clipPath id="clip0_206_9200">
        <rect width="24" height="24" fill="white"></rect>
      </clipPath>
    </defs>
  </symbol>
  <symbol fill="none" xmlns="http://www.w3.org/2000/svg" viewBox="0 0 24 24" id="pin">
    <path d="M20 10.1818C20 16.5455 12 22 12 22C12 22 4 16.5455 4 10.1818C4 8.01187 4.84285 5.93079 6.34315 4.3964C7.84344 2.86201 9.87827 2 12 2C14.1217 2 16.1566 2.86201 17.6569 4.3964C19.1571 5.93079 20 8.01187 20 10.1818Z" stroke-width="2" stroke-linecap="round" stroke-linejoin="round"></path>
    <path d="M12 13C13.6569 13 15 11.6569 15 10C15 8.34315 13.6569 7 12 7C10.3431 7 9 8.34315 9 10C9 11.6569 10.3431 13 12 13Z" stroke-width="2" stroke-linecap="round" stroke-linejoin="round"></path>
  </symbol>
   <symbol fill="none" xmlns="http://www.w3.org/2000/svg" viewBox="0 0 24 24" id="catalog">
    <defs></defs>
    <g transform="matrix(0.78 0 0 0.78 2 2)">
      <rect x="3" y="3" width="8" height="8" rx="1"  stroke-width="2.5"></rect>
    </g>
    <g transform="matrix(0.78 0 0 0.78 2 4)">
      <rect x="3" y="13" width="8" height="8" rx="1" stroke-width="2.5"></rect>
    </g>
    <g transform="matrix(0.78 0 0 0.78 4 2)">
      <rect x="13" y="3" width="8" height="8" rx="1" stroke-width="2.5"></rect>
    </g>
    <g transform="matrix(0.78 0 0 0.78 4 4)">
      <rect x="13" y="13" width="8" height="8" rx="1" stroke-width="2.5"></rect>
    </g>
  </symbol>
  <symbol xmlns="http://www.w3.org/2000/svg" viewBox="0 0 24 24" id="heart">
    <path d="M16.5 3C19.538 3 22 5.5 22 9C22 14.8727 16.7211 18.6338 13.5446 20.5787C12.5997 21.1572 11.4003 21.1572 10.4554 20.5787C7.27886 18.6338 2 14.8727 2 9C2 5.5 4.5 3 7.5 3C9.36 3 11 4 12 5C13 4 14.64 3 16.5 3ZM12.934 18.604C13.815 18.048 14.61 17.495 15.354 16.903C18.335 14.533 20 11.943 20 9C20 6.64 18.463 5 16.5 5C15.424 5 14.26 5.57 13.414 6.414L12 7.828L10.586 6.414C9.74 5.57 8.576 5 7.5 5C5.56 5 4 6.656 4 9C4 11.944 5.666 14.533 8.645 16.903C9.39 17.495 10.185 18.048 11.066 18.603C11.2064 18.6917 11.3461 18.7787 11.4899 18.8669C11.8029 19.0589 12.197 19.0588 12.5101 18.867C12.6539 18.779 12.7936 18.6923 12.934 18.604Z"></path>
  </symbol>
  <symbol fill="none" xmlns="http://www.w3.org/2000/svg" viewBox="0 0 24 24" id="card">
    <g clip-path="url(#clip0_1901_1159)">
      <path d="M1 1H5V15.5C5 15.7761 5.22386 16 5.5 16H19.1802C19.6569 16 20.0673 15.6635 20.1608 15.1961L21.8804 6.59806C21.9423 6.28866 21.7056 6 21.3901 6H5" stroke-width="2" stroke-linecap="round" stroke-linejoin="round"></path>
      <path d="M6 22C6.55228 22 7 21.5523 7 21C7 20.4477 6.55228 20 6 20C5.44772 20 5 20.4477 5 21C5 21.5523 5.44772 22 6 22Z" stroke-width="2" stroke-linecap="round" stroke-linejoin="round"></path>
      <path d="M17 22C17.5523 22 18 21.5523 18 21C18 20.4477 17.5523 20 17 20C16.4477 20 16 20.4477 16 21C16 21.5523 16.4477 22 17 22Z" stroke-width="2" stroke-linecap="round" stroke-linejoin="round"></path>
    </g>
    <defs>
      <clipPath id="clip0_1901_1159">
        <rect width="24" height="24" fill="white"></rect>
      </clipPath>
    </defs>
  </symbol>
  <symbol fill="none" xmlns="http://www.w3.org/2000/svg" viewBox="0 0 24 24" id="user">
    <path fill-rule="evenodd" clip-rule="evenodd" d="M17 7C17 9.76203 14.7609 12 12.0007 12C9.23911 12 7 9.76203 7 7C7 4.23797 9.23911 2 12.0007 2C14.7609 2 17 4.23797 17 7Z" stroke-width="2" stroke-linecap="square"></path>
    <path d="M12 15C15.6989 14.991 18.844 16.6183 20 20.1214C17.6699 21.4825 14.9271 22.0068 12 21.9999C9.07293 22.0068 6.33014 21.4825 4 20.1214C5.15737 16.6145 8.29713 14.991 12 15Z" stroke-width="2" stroke-linecap="square"></path>
  </symbol>
  <symbol xmlns="http://www.w3.org/2000/svg" viewBox="0 0 24 24" id="sale">
    <path fill-rule="evenodd" clip-rule="evenodd" d="M4 1C4 0.447715 3.55228 0 3 0C2.44772 0 2 0.447715 2 1V21.8461C2 22.6422 2.81935 23.1746 3.54675 22.8513L12 19.0943L20.4532 22.8513C21.1807 23.1746 22 22.6422 22 21.8461V1C22 0.447715 21.5523 0 21 0C20.4477 0 20 0.447715 20 1V20.4612L12.4468 17.1042C12.1623 16.9778 11.8377 16.9778 11.5532 17.1042L4 20.4612V1ZM16.7071 4.29289C17.0976 4.68342 17.0976 5.31658 16.7071 5.70711L8.70711 13.7071C8.31658 14.0976 7.68342 14.0976 7.29289 13.7071C6.90237 13.3166 6.90237 12.6834 7.29289 12.2929L15.2929 4.29289C15.6834 3.90237 16.3166 3.90237 16.7071 4.29289ZM9 8C10.1046 8 11 7.10457 11 6C11 4.89543 10.1046 4 9 4C7.89543 4 7 4.89543 7 6C7 7.10457 7.89543 8 9 8ZM15 14C16.1046 14 17 13.1046 17 12C17 10.8954 16.1046 10 15 10C13.8954 10 13 10.8954 13 12C13 13.1046 13.8954 14 15 14Z"></path>
  </symbol>
</svg>